<svg xmlns="http://www.w3.org/2000/svg" width="155" height="40">
  <defs>
    <linearGradient id="grad" x1="0%" y1="0%" x2="100%" y2="0%">
      <stop offset="0%" style="stop-color:#7C3AED;stop-opacity:1" />
      <stop offset="100%" style="stop-color:#0A84FF;stop-opacity:1" />
    </linearGradient>
  </defs>
  <rect width="155" height="40" rx="20" ry="20" fill="url(#grad)"/>
  <g transform="translate(14, 11) scale(0.75)">
    <path d="M12 2C6.48 2 2 6.48 2 12s4.48 10 10 10 10-4.48 10-10S17.52 2 12 2zm-1 17.93c-3.95-.49-7-3.85-7-7.93 0-.62.08-1.21.21-1.79L9 15v1c0 1.1.9 2 2 2v1.93zm6.9-2.54c-.26-.81-1-1.39-1.9-1.39h-1v-3c0-.55-.45-1-1-1H8v-2h2c.55 0 1-.45 1-1V7h2c1.1 0 2-.9 2-2v-.41c2.93 1.19 5 4.06 5 7.41 0 2.08-.8 3.97-2.1 5.39z" fill="white"/>
  </g>
  <text x="44" y="25.5" font-family="-apple-system, BlinkMacSystemFont, 'SF Pro Display', sans-serif" font-size="14" font-weight="600" fill="white" letter-spacing="0.3">Portfolio</text>
</svg>
